<?xml version="1.0" encoding="UTF-8"?>
<svg xmlns="http://www.w3.org/2000/svg" id="Layer_1" viewBox="0 0 24 24" width="512" height="512"><path fill="rgb(178, 178, 178)" d="M 21 12 a 9.1 9.1 0 0 0 -0.1 -1.6 L 23.9 8.6 l -3 -5.2 L 17.8 5.2 A 9 9 0 0 0 15 3.5 V 0 H 9 V 3.5 A 9 9 0 0 0 6.2 5.2 L 3.1 3.4 l -3 5.2 L 3.1 10.4 a 9.1 9.1 0 0 0 0 3.3 L 0.1 15.4 l 3 5.2 l 3 -1.8 A 9 9 0 0 0 9 20.5 V 24 h 6 V 20.5 a 9 9 0 0 0 2.8 -1.6 L 20.9 20.6 l 3 -5.2 L 20.9 13.6 A 9.1 9.1 0 0 0 21 12 Z m -6 0 a 3 3 0 1 1 -3 -3 A 3 3 0 0 1 15 12 Z"/></svg>